<?xml version="1.0" standalone="no"?><svg xmlns="http://www.w3.org/2000/svg" viewBox="0 0 1440 320"><path fill="#cef" fill-opacity="1" d="M0,256L24,229.3C48,203,96,149,144,133.3C192,117,240,139,288,170.7C336,203,384,245,432,272C480,299,528,309,576,298.7C624,288,672,256,720,213.3C768,171,816,117,864,96C912,75,960,85,1008,74.7C1056,64,1104,32,1152,32C1200,32,1248,64,1296,106.7C1344,149,1392,203,1416,229.3L1440,256L1440,0L1416,0C1392,0,1344,0,1296,0C1248,0,1200,0,1152,0C1104,0,1056,0,1008,0C960,0,912,0,864,0C816,0,768,0,720,0C672,0,624,0,576,0C528,0,480,0,432,0C384,0,336,0,288,0C240,0,192,0,144,0C96,0,48,0,24,0L0,0Z"></path></svg>